<svg xmlns="http://www.w3.org/2000/svg" viewBox="0 0 120 40" fill="none">
  <rect width="120" height="40" rx="4" fill="#003399"/>
  <circle cx="20" cy="20" r="12" stroke="#FFCC00" stroke-width="2" fill="none"/>
  <g fill="#FFCC00">
    <polygon points="20,10 20.8,12.4 23.3,12.4 21.2,13.8 22,16.2 20,14.8 18,16.2 18.8,13.8 16.7,12.4 19.2,12.4"/>
    <polygon points="14,12 14.8,14.4 17.3,14.4 15.2,15.8 16,18.2 14,16.8 12,18.2 12.8,15.8 10.7,14.4 13.2,14.4"/>
    <polygon points="12,18 12.8,20.4 15.3,20.4 13.2,21.8 14,24.2 12,22.8 10,24.2 10.8,21.8 8.7,20.4 11.2,20.4"/>
    <polygon points="14,24 14.8,26.4 17.3,26.4 15.2,27.8 16,30.2 14,28.8 12,30.2 12.8,27.8 10.7,26.4 13.2,26.4"/>
    <polygon points="20,28 20.8,30.4 23.3,30.4 21.2,31.8 22,34.2 20,32.8 18,34.2 18.8,31.8 16.7,30.4 19.2,30.4"/>
    <polygon points="26,24 26.8,26.4 29.3,26.4 27.2,27.8 28,30.2 26,28.8 24,30.2 24.8,27.8 22.7,26.4 25.2,26.4"/>
    <polygon points="28,18 28.8,20.4 31.3,20.4 29.2,21.8 30,24.2 28,22.8 26,24.2 26.8,21.8 24.7,20.4 27.2,20.4"/>
    <polygon points="26,12 26.8,14.4 29.3,14.4 27.2,15.8 28,18.2 26,16.8 24,18.2 24.8,15.8 22.7,14.4 25.2,14.4"/>
  </g>
  <text x="42" y="25" font-family="Arial, sans-serif" font-size="14" font-weight="bold" fill="white">EUDI</text>
</svg>
